<?xml version="1.0" encoding="utf-8"?>
<!-- Generator: Adobe Illustrator 16.0.0, SVG Export Plug-In . SVG Version: 6.00 Build 0)  -->
<!DOCTYPE svg PUBLIC "-//W3C//DTD SVG 1.1//EN" "http://www.w3.org/Graphics/SVG/1.1/DTD/svg11.dtd">
<svg version="1.1" id="Layer_1" xmlns="http://www.w3.org/2000/svg" xmlns:xlink="http://www.w3.org/1999/xlink" x="0px" y="0px"
	 width="313.938994564" height="318.533223752" viewBox="0 0 410 416" enable-background="new 0 0 410 416" xml:space="preserve">
<g>
	<g>
		<ellipse fill="#FFFCD5" cx="204.25" cy="202.112" rx="170.599" ry="168.3"/>
	</g>
	<g>
		<path fill="#2E3192" d="M204.25,372.182c-95.043,0-172.367-76.293-172.367-170.07c0-93.775,77.324-170.069,172.367-170.069
			c95.043,0,172.368,76.294,172.368,170.069C376.617,295.889,299.293,372.182,204.25,372.182z M204.25,35.581
			c-93.093,0-168.83,74.705-168.83,166.531c0,91.828,75.737,166.533,168.83,166.533c93.094,0,168.831-74.705,168.831-166.533
			C373.08,110.286,297.344,35.581,204.25,35.581z"/>
	</g>
	<g>
		<path fill="#00A651" d="M204.25,362.158c-89.448,0-162.221-71.797-162.221-160.046c0-88.25,72.772-160.049,162.221-160.049
			c89.444,0,162.211,71.799,162.211,160.049C366.461,290.361,293.693,362.158,204.25,362.158z M204.25,45.6
			c-87.498,0-158.683,70.211-158.683,156.512c0,86.298,71.186,156.509,158.683,156.509c87.495,0,158.674-70.211,158.674-156.509
			C362.924,115.811,291.744,45.6,204.25,45.6z"/>
	</g>
	<g>
		<path fill="#F58220" d="M204.25,351.713c-83.603,0-151.621-67.113-151.621-149.601c0-82.487,68.018-149.6,151.621-149.6
			c83.6,0,151.614,67.112,151.614,149.6C355.863,284.6,287.85,351.713,204.25,351.713z M204.25,56.05
			c-81.652,0-148.083,65.522-148.083,146.062c0,80.539,66.431,146.062,148.083,146.062c81.651,0,148.077-65.523,148.077-146.062
			C352.326,121.573,285.9,56.05,204.25,56.05z"/>
	</g>
	<g>
		<path fill="#00AEEF" d="M204.25,341.793c-78.057,0-141.563-62.66-141.563-139.681c0-77.021,63.505-139.681,141.563-139.681
			s141.561,62.66,141.561,139.681C345.811,279.133,282.307,341.793,204.25,341.793z M204.25,65.968
			c-76.106,0-138.025,61.075-138.025,136.144c0,75.069,61.918,136.144,138.025,136.144c76.106,0,138.022-61.075,138.022-136.144
			C342.271,127.043,280.355,65.968,204.25,65.968z"/>
	</g>
	<g>
		<path fill="#2E3192" d="M109.572,292.354c0,0,42.855,2.076,19.7,12.678c0,0,0,5.607,4.268,6.236
			c4.262,0.619,46.921-4.988,55.454-5.617c8.531-0.619,8.732-11.633,8.732-11.633l17.883,0.412c0,0-3.307,9.703,11.779,10.807
			c22.746,1.662,43.875,6.031,48.143,6.031c0,0,7.924,1.863,4.873-5.617c0,0-16.049-12.049,20.918-13.297
			c0,0-0.395-1.664-36.152-10.81c0,0-15.846-0.21-12.797-8.314c0,0-48.549-17.872-89.583,0c0,0,2.436,9.975-6.503,8.727
			C156.286,281.956,114.04,285.284,109.572,292.354z"/>
	</g>
	<g>
		<path fill="#FFFFFF" d="M166.444,275.723c0,0,32.503-14.131,81.662,0.419l-3.65,16.212l-74.353-0.832L166.444,275.723z"/>
	</g>
	<g>
		<g>
			<path fill="#2E3192" d="M61.018,299.416c0,0-57.285,42.404-1.219,51.756c0,0,7.313-24.945,26.204-24.318L61.018,299.416z"/>
		</g>
		<g>
			<path fill="#2E3192" d="M349.27,295.678c0,0,59.721,31.176,7.309,57.365c0,0,5.488-19.33-27.42-31.801L349.27,295.678z"/>
		</g>
	</g>
	<g>
		<path fill="#ED1C24" d="M58.34,350.195c0,0,6.144,57.77,67.887,22.174c76.781-44.271,77.404-54.029,156.008-9.352
			c49.359,28.059,73.734,27.434,75.566-11.223c0,0-13.41,18.707-63.988-11.85c-61.645-37.227-87.006-49.807-160.882-3.115
			C70.768,376.113,58.34,350.195,58.34,350.195z"/>
	</g>
	<g>
		<path fill="#363639" d="M179.65,288.566c-1.268,0.488-2.417,0.734-3.439,0.734c-0.531,0-1.217-0.131-2.082-0.402
			c-1.117-0.391-1.677-0.953-1.677-1.682c0-0.563,0.298-1.081,0.893-1.556c0.604-0.472,1.304-0.8,2.121-0.967
			c0.333-0.075,0.752-0.111,1.248-0.111c1.558,0,2.75,0.259,3.585,0.776c0.481-0.438,0.721-0.874,0.721-1.316
			c0-0.39-0.357-0.868-1.078-1.425c-1.528-1.219-3.354-2.5-5.48-3.839c-1.264-0.807-1.9-1.55-1.9-2.234
			c0-0.754,0.483-1.327,1.435-1.72c0.409-0.145,0.804-0.216,1.186-0.216c0.721,0,1.288,0.173,1.707,0.53
			c0.419,0.351,0.627,0.773,0.627,1.261c0,0.121-0.069,0.351-0.205,0.691c1.772,1.17,3.239,2.29,4.414,3.364
			c1.41,1.268,2.113,2.535,2.113,3.803C183.837,286.012,182.442,287.449,179.65,288.566z"/>
	</g>
	<g>
		<path fill="#363639" d="M195.226,282.493c0,0.05-0.035,0.147-0.111,0.295c0.049,0.557-0.197,1.124-0.74,1.71
			c-1.339,1.333-2.545,2.012-3.645,2.034c-0.049-0.144-0.083-0.278-0.111-0.399v-3.931c0.831-0.384,1.704-0.58,2.604-0.58
			c0.48,0,0.932,0.085,1.359,0.256C195.011,282.045,195.226,282.251,195.226,282.493z M193.654,279.286
			c-0.971,0-1.986,0.292-3.036,0.878v-2.182l-0.173-1.271c-0.048-0.433-0.352-0.809-0.914-1.127
			c-0.562-0.314-1.165-0.472-1.816-0.472c-1.333,0-2.005,0.544-2.005,1.615c-0.024,0.419,0.156,0.772,0.539,1.064
			c0.385,0.295,0.891,0.455,1.515,0.479v7.818c0.333,0.656,0.92,1.262,1.752,1.822c0.788,0.48,1.444,0.725,1.969,0.725
			c1.544,0,3.155-0.564,4.825-1.695c1.667-1.133,2.498-2.233,2.498-3.308c0-0.554-0.205-1.091-0.617-1.603
			c-0.027-0.022-0.035-0.062-0.035-0.114l0.568-0.033c0.596,0,1.053,0,1.359,0c2.41-0.022,3.609-0.776,3.609-2.27
			c0-0.317-0.066-0.655-0.216-1.022l-0.886-0.255c-0.215,0.363-0.389,0.632-0.506,0.806c-0.188,0.147-0.69,0.22-1.501,0.22
			c-1.001,0.025-1.7,0.085-2.106,0.183c-0.793,0.193-1.302,0.58-1.541,1.167v0.036C195.748,279.774,194.654,279.286,193.654,279.286
			z"/>
	</g>
	<g>
		<path fill="#363639" d="M216.767,280.492h-5.085c-0.513,0-0.811,0-0.88,0c-0.232-0.049-0.354-0.217-0.354-0.511
			c0-0.171,0.034-0.403,0.103-0.695c0.118-0.39,0.652-0.861,1.591-1.408c0.946-0.547,1.684-0.799,2.228-0.75
			c0.542,0.193,1.096,0.743,1.66,1.647C216.496,279.529,216.746,280.103,216.767,280.492z M221.605,287.723
			c0-0.883-0.623-1.357-1.865-1.43v-6.23c0.164-1.045-0.465-2.112-1.906-3.2c-1.428-1.084-2.938-1.631-4.496-1.631
			c-1.473,0-2.855,0.469-4.15,1.408c-1.296,0.94-1.939,1.92-1.939,2.941c0,0.761,0.494,1.494,1.482,2.198
			c0.997,0.704,2.035,1.094,3.135,1.17h4.901v4.074c0,1.268,0.7,2.002,2.081,2.199c1.625,0.121,2.52-0.242,2.686-1.098
			C221.582,287.998,221.605,287.865,221.605,287.723z"/>
	</g>
	<g>
		<path fill="#363639" d="M239.043,285.458c-0.602,0.854-1.506,1.554-2.705,2.087c-1.199,0.541-2.486,0.797-3.844,0.77
			c-2.314-0.049-4.516-1.07-6.609-3.072c-1.268-1.192-2.225-2.401-2.869-3.623c-0.547-1.098-0.963-2.454-1.248-4.059l2.529,0.767
			c0.41,2.296,1.709,4.212,3.902,5.745c1.234,0.881,2.543,1.323,3.922,1.323c1.287,0,2.451-0.32,3.498-0.953
			c1.146-0.639,1.684-1.392,1.613-2.27c-0.123-1.271-0.484-2.149-1.102-2.641c-0.311-0.269-0.852-0.511-1.631-0.73
			c0.143,0.266,0.219,0.534,0.219,0.8c0,0.681-0.354,1.258-1.053,1.729c-0.707,0.472-1.553,0.71-2.529,0.71
			c-1.025,0-1.891-0.288-2.6-0.857c-0.705-0.573-1.059-1.226-1.059-1.959c0-0.682,0.201-1.231,0.611-1.645
			c0.553-0.563,1.121-0.95,1.715-1.17c0.531-0.17,1.326-0.281,2.402-0.33c1.111-0.099,2.389,0.196,3.826,0.881
			c1.242,0.561,2.209,1.353,2.898,2.375c0.645,0.934,0.969,1.933,0.969,3.007C239.9,283.25,239.611,284.285,239.043,285.458z"/>
	</g>
	<g>
		<g>
			<path fill="#FFFFFF" d="M145.484,129.471l-34.126,21.822c0,0-11.206,98.663-10.354,98.515
				c73.734-12.471,103.63,13.31,104.207,13.093c59.114-21.822,101.77-14.341,101.77-14.341l-13.408-97.267l-26.207-19.33
				c0,0-49.664,1.557-64.899,29.619C202.466,161.583,185.709,135.705,145.484,129.471z"/>
			<path fill="#2E3192" d="M205.202,264.671c-0.603,0-0.94-0.223-1.845-0.819c-15.315-10.112-38.089-15.684-64.126-15.684
				c-11.896,0-24.657,1.14-37.932,3.384l-0.963,0.163l-0.66-0.733c-0.704-0.786-1.26-1.408,9.925-99.888l0.095-0.835l35.399-22.639
				l0.66,0.102c34,5.271,51.409,24.076,56.556,30.647c16.869-26.359,62.99-28.108,65-28.174l0.611-0.02l27.303,20.139l13.84,100.406
				l-2.389-0.416c-0.07-0.014-7.082-1.212-19.105-1.212c-18.176,0-47.113,2.683-81.749,15.471L205.202,264.671z M139.231,244.633
				c26.722,0,50.188,5.775,66.075,16.268c0.028,0.017,0.055,0.036,0.08,0.053c34.782-12.72,63.858-15.399,82.184-15.399
				c8.35,0,14.277,0.554,17.338,0.927l-12.986-94.208l-25.102-18.515c-5.633,0.305-49.113,3.46-62.799,28.669l-1.417,2.607
				l-1.622-2.489c-0.162-0.252-16.683-25.017-55.111-31.224l-32.85,21.007c-3.928,34.614-9.48,84.98-10.215,95.41
				C115.36,245.685,127.691,244.633,139.231,244.633z"/>
		</g>
		<g>
			<path fill="#FFFFFF" d="M146.58,129.661l-29.127,18.845c0,0-11.198,96.557-10.394,96.417
				c69.403-11.708,97.542,12.486,98.082,12.29c55.638-20.482,95.787-13.456,95.787-13.456l-12.615-96.38l-21.773-15.13
				c0,0-47.348,1.503-64.073,29.894C202.466,162.139,184.431,135.514,146.58,129.661z"/>
			<path fill="#2E3192" d="M205.132,258.98c-0.596,0-0.918-0.213-1.783-0.782c-14.385-9.483-35.801-14.708-60.3-14.708
				c-11.193,0-23.203,1.067-35.695,3.174l-0.965,0.164l-0.66-0.734c-0.706-0.792-1.215-1.365,9.966-97.792l0.097-0.828
				l30.394-19.664l0.665,0.102c32.31,4.999,50.276,24.548,55.491,31.109c18.038-26.77,62.221-28.482,64.141-28.545l0.586-0.016
				l22.896,15.909l13.029,99.542l-2.371-0.413c-0.064-0.013-6.664-1.137-17.977-1.137c-17.098,0-44.316,2.516-76.895,14.512
				L205.132,258.98z M143.049,239.952c25.184,0,47.291,5.432,62.248,15.294c0.008,0.004,0.017,0.01,0.025,0.017
				c32.713-11.923,60.079-14.439,77.325-14.439c7.764,0,13.309,0.505,16.227,0.858l-12.213-93.3l-20.637-14.341
				c-5.381,0.302-46.975,3.439-62.034,28.996l-1.417,2.404l-1.571-2.31c-0.174-0.259-17.884-25.753-54.03-31.616l-27.858,18.022
				c-3.919,33.814-9.462,82.979-10.238,93.314C120.644,240.935,132.216,239.952,143.049,239.952z"/>
		</g>
		<g>
			<path fill="#FFFFFF" d="M145.484,129.776l-20.106,12.922c0,0-14.849,97.025-14.085,96.898
				c65.61-11.171,92.212,11.906,92.724,11.724c52.6-19.543,90.557-12.841,90.557-12.841l-11.938-95.643l-15.572-10.882
				c0,0-48.875,2.945-64.682,30.025C202.382,161.979,181.271,135.364,145.484,129.776z"/>
			<path fill="#2E3192" d="M204.011,253.088c-0.598,0-0.932-0.223-1.741-0.76c-13.576-9.041-33.802-14.017-56.948-14.017
				c-10.577,0-21.927,1.019-33.733,3.026l-0.986,0.17l-0.66-0.763c-0.694-0.81-1.153-1.343,13.688-98.316l0.12-0.789l21.342-13.716
				l0.665,0.105c30.895,4.821,50.791,24.686,56.408,30.972c17.235-25.655,62.811-28.695,64.793-28.813l0.613-0.036l16.723,11.685
				l12.33,98.797l-2.357-0.413c-0.063-0.013-6.291-1.084-16.971-1.084c-16.156,0-41.877,2.401-72.664,13.84L204.011,253.088z
				 M145.322,234.773c23.822,0,44.731,5.183,58.882,14.59c30.913-11.363,56.784-13.765,73.092-13.765
				c7.242,0,12.443,0.472,15.236,0.81l-11.553-92.574l-14.412-10.069c-5.604,0.459-48.445,4.757-62.657,29.104l-1.305,2.234
				l-1.609-2.024c-0.205-0.259-20.871-25.819-55.125-31.45l-18.866,12.123c-5.187,33.91-12.577,83.176-13.799,93.753
				C124.256,235.697,135.135,234.773,145.322,234.773z"/>
		</g>
		<g>
			<path fill="#FFFFFF" d="M145.792,130.1l-13.71,8.507c0,0-14.533,96.897-13.833,96.773c60.632-10.738,85.215,11.461,85.693,11.287
				c48.601-18.809,83.675-12.353,83.675-12.353l-9.891-94.761l-10.361-7.249c0,0-50.328,2.372-64.933,28.423
				C202.432,160.727,178.857,135.472,145.792,130.1z"/>
			<path fill="#2E3192" d="M203.935,248.437c-0.609,0-0.955-0.239-1.711-0.764c-12.525-8.681-31.185-13.46-52.543-13.46
				c-9.758,0-20.23,0.979-31.124,2.909l-0.991,0.174l-0.664-0.767c-0.71-0.825-1.102-1.277,13.431-98.185l0.121-0.809l14.968-9.287
				l0.653,0.105c28.728,4.668,50.087,23.719,56.021,29.517c16.194-24.744,63.145-27.237,65.186-27.332l0.602-0.029l11.518,8.059
				l10.221,97.913l-2.324-0.426c-0.059-0.01-5.805-1.042-15.662-1.042c-14.91,0-38.646,2.31-67.055,13.306L203.935,248.437z
				 M149.681,230.676c22.016,0,41.351,4.979,54.458,14.02c28.532-10.911,52.428-13.221,67.499-13.221
				c6.594,0,11.365,0.442,13.986,0.764l-9.572-91.699l-9.193-6.434c-5.641,0.38-49.764,4.085-62.883,27.486l-1.182,2.109
				l-1.652-1.766c-0.231-0.249-23.261-24.551-54.981-29.982l-12.449,7.725c-5.076,33.854-12.305,82.975-13.535,93.595
				C130.307,231.557,140.309,230.676,149.681,230.676z"/>
		</g>
		<g>
			<path fill="#FFFFFF" d="M145.18,130.408l-5.785,3.128c0,0-14.356,94.808-13.712,94.762c50.884-3.741,77.743,14.481,78.176,14.337
				c42.485-14.337,77.219-14.963,77.219-14.963l-8.834-91.882l-4.879-3.482c0,0-52.102,3.794-64.885,27.349
				C202.48,159.656,178.701,133.857,145.18,130.408z"/>
			<path fill="#2E3192" d="M203.852,244.404c-0.515,0-0.776-0.145-1.747-0.675c-19.712-10.823-47.221-15.792-76.292-13.67
				l-0.89,0.065l-0.586-0.678c-0.709-0.825-1.066-1.238,13.309-96.176l0.133-0.872l7.04-3.806l0.543,0.056
				c29.19,3.004,50.796,22.251,56.783,28.138c14.764-22.327,62.989-26.091,65.094-26.245l0.635-0.045l6.055,4.32l9.094,94.587
				l-1.91,0.036c-0.346,0.007-34.979,0.796-76.688,14.872L203.852,244.404z M139.272,226.021c24.461,0,47.379,5.189,64.534,14.606
				c0.064,0.036,0.125,0.069,0.18,0.099c36.362-12.166,67.321-14.374,75.153-14.747l-8.578-89.216l-3.693-2.637
				c-5.896,0.531-51.397,5.304-62.833,26.376l-1.177,2.168l-1.678-1.814c-0.232-0.252-23.483-25.072-55.641-28.629l-4.527,2.446
				c-5.042,33.311-12.23,81.639-13.413,91.722C131.527,226.148,135.444,226.021,139.272,226.021z"/>
		</g>
		<g>
			<path fill="#FFFFFF" d="M147.62,130.09c0,0-16.125,92.065-15.538,91.973c27.729-4.366,72.74,16.998,73.128,16.834
				c30.874-13.197,69.877-17.357,69.877-17.357l-8.941-88.954c0,0-51.939,3.308-63.625,26.08
				C202.522,158.667,178.261,133.424,147.62,130.09z"/>
			<path fill="#2E3192" d="M205.203,240.666c-0.447,0-0.49-0.016-2.802-0.995c-25.737-10.901-46.665-16.428-62.207-16.428
				c-2.811,0-5.448,0.193-7.837,0.566l-0.986,0.157l-0.648-0.767c-0.724-0.864-0.996-1.186,15.155-93.415l0.287-1.635l1.647,0.18
				c26.7,2.906,48.278,21.712,54.325,27.47c13.838-21.544,61.801-24.846,63.899-24.979l1.701-0.108l9.287,92.4l-1.746,0.187
				c-0.389,0.043-39.107,4.288-69.374,17.224L205.203,240.666z M140.194,219.705c16.016,0,37.411,5.621,63.585,16.706
				c0.585,0.249,1.048,0.445,1.381,0.583c26.951-11.366,60.093-16.018,67.994-17.004l-8.592-85.498
				c-8.953,0.815-50.535,5.627-60.466,24.983l-1.13,2.201l-1.719-1.785c-0.234-0.242-23.314-23.916-52.175-27.843
				c-5.606,32.032-13.494,77.728-14.989,87.967C136.015,219.811,138.06,219.705,140.194,219.705z"/>
		</g>
	</g>
	<g>
		<path fill="#FFFFFF" d="M212.451,246.848c0,5.034-2.758,9.119-6.175,9.119c-3.416,0-6.177-4.085-6.177-9.119
			c0-5.045,2.762-9.119,6.177-9.119C209.693,237.729,212.451,241.803,212.451,246.848z"/>
	</g>
	<g>
		<g>
			<g>
				<path fill="#FFFFFF" d="M129.661,351.461c-1.692,1.336-3.344,2.895-4.962,4.656c2.593-0.641,5.01-0.799,7.255-0.484
					L129.661,351.461z M131.215,347.848l5.558,10.121l-1.938,0.105c-1.846-0.525-2.84-0.803-2.985-0.84
					c-1.094-0.209-2.341-0.18-3.721,0.082c-1.787,0.334-3.505,0.904-5.151,1.717l-3.931-0.553c3.042-3.385,6.224-6.369,9.547-8.957
					l-0.121-0.225l-11.072,5.84l-3.659,0.053l17.339-9.146l3.658-0.029L131.215,347.848z M128.697,360.846l-1.926,0.514
					c-0.63,0.01-1.039-0.154-1.215-0.473c-0.177-0.32-0.121-0.711,0.184-1.191l1.371-1.205l1.913-0.531
					c0.631-0.01,1.037,0.137,1.22,0.461c0.172,0.314,0.113,0.721-0.184,1.199L128.697,360.846z"/>
			</g>
			<g>
				<path fill="#FFFFFF" d="M131.296,345.934c-0.554,0.281-1.422,0.789-2.619,1.508l3.464-0.082l0.624-0.324l2.016-0.607l1.52,0.314
					l0.434,0.443l4.018,7.377l3.547,0.072l-5.744-10.598l3.784-1.961l-3.561-0.023l-1.255,0.652l-0.55-0.043l-1.068-0.826
					l-2.01,0.148c0.606,1.109,1.146,1.945,1.618,2.502l0.243,0.291C134.642,344.592,133.148,344.975,131.296,345.934z"/>
			</g>
			<g>
				<path fill="#FFFFFF" d="M146.975,339.965c-0.72,1.311-0.916,2.271-0.588,2.873c0.557,1.055,1.862,1.383,3.952,1.131l2.213-0.777
					c0.817-0.408,1.792-1.055,2.923-1.955l0.236-0.154l0.396,0.037l0.442,0.236c0.173,0.324-0.202,0.852-1.094,1.568l-2.119,1.412
					l-2.205,0.721c-0.382,0.055-1.039,0.072-1.979,0.088l-2.136-0.396c-0.316-0.098-0.826-0.412-1.533-0.904
					c-0.526-0.383-0.942-0.969-1.268-1.748c-0.283,0.01-0.776,0.088-1.485,0.234l-0.392,0.076c-0.271,0.141-0.336,0.344-0.195,0.6
					c0.111,0.271,0.483,0.906,1.089,1.891c0.609,0.709,1.156,1.215,1.663,1.51c1.091,0.602,2.134,0.975,3.163,1.109
					c2.276,0.246,4.563-0.176,6.862-1.311c1.517-0.75,2.668-1.67,3.464-2.783c0.801-1.107,0.991-2.07,0.582-2.879
					c-0.395-0.771-1.365-1.238-2.924-1.402l-1.523,0.055l0.069-0.031l-0.687,0.131l-0.982,0.822
					c-1.168,1.031-1.851,1.617-2.059,1.762l-0.534,0.324c-0.598,0.299-0.973,0.309-1.128,0.02c-0.111-0.213-0.015-0.74,0.317-1.563
					c0.319-0.828,0.665-1.393,1.022-1.674c1.127,0.15,1.772,0.238,1.931,0.242c0.519-0.039,1.364-0.203,2.532-0.514l4.378-1.664
					c-0.156,1.311-0.017,2.355,0.406,3.137c0.249,0.488,0.761,1.076,1.544,1.76c0.161,0.145,0.811,0.676,1.954,1.596
					c0.09,0.063,0.451-0.004,1.078-0.213l1.302-0.41c0.392-0.176,0.537-0.367,0.441-0.561c-1.504-0.713-2.429-1.385-2.771-2.072
					l-0.45-1.344c-0.239-0.547-0.18-1.287,0.183-2.24l1.375-2.5c-1.669-0.121-3.142-0.223-4.34-0.242
					c-0.808,0.594-1.368,1-1.7,1.219l-1.993,1.268l-2.282,0.803c-0.991,0.275-1.54,0.334-1.608,0.184l0.063-0.15l0.79-0.768
					l11.356-5.434l-3.582-0.197l-24.007,12.02l3.588,0.016l6.43-3.328L146.975,339.965z"/>
			</g>
			<g>
				<path fill="#FFFFFF" d="M177.724,329.244c-0.193-0.459-0.671-0.74-1.448-0.865c-0.284-0.051-1.053-0.088-2.308-0.123
					c0.142-0.367,0.576-0.715,1.304-1.029c0.532-0.262,1.343-0.256,2.417,0.014c1.06,0.271,1.649,0.557,1.771,0.857l2.477,6.594
					l3.513,0.406l-4.171-10.963l4.047-1.406l-3.575-0.527c-0.883,0.271-1.433,0.361-1.646,0.289l-0.072-0.209l-0.63-0.469
					c-0.575-0.1-1.42-0.16-2.55-0.201l1.158,2.441l1.236,1.973l-0.273-0.119c-2.502-0.785-4.299-0.973-5.287-0.586l-0.981,0.543
					c-1.651,0.902-2.594,1.998-3.038,3.008c-0.976-0.178-1.746-0.279-2.275-0.285c-0.94,0.063-1.902,0.328-2.876,0.764l-5.151,2.348
					l3.626,0.168c2.354-1.082,3.032-1.408,2.062-0.973l2.001-0.508l0.978,0.195l-0.879,0.924c-1.087,1.164-1.448,2.09-1.117,2.785
					l0.328,0.383c0.837,0.59,1.912,0.58,3.22-0.02c1.213-0.551,2.093-1.311,2.661-2.289c1.04,0.199,2.085,0.023,3.207-0.387
					l1.453-0.813c0.522-0.393,0.827-0.746,0.917-1.049l-0.097,0.111V329.244z"/>
			</g>
			<g>
				<path fill="#FFFFFF" d="M181.594,322.229c-0.589,0.232-1.535,0.645-2.845,1.234l3.485,0.299l0.671-0.266l2.142-0.279
					c0.7,0.059,1.188,0.246,1.479,0.566l0.346,0.516l2.671,7.939l3.268,0.766l-3.493-11.486l4.213-1.256l-3.552-0.674l-1.421,0.432
					l-0.541-0.141l-0.911-0.998l-2.109-0.178c0.401,1.189,0.789,2.104,1.163,2.734l0.195,0.328
					C185.276,321.418,183.6,321.445,181.594,322.229z"/>
			</g>
			<g>
				<path fill="#FFFFFF" d="M209.135,321.92c-0.029-0.682-0.492-1.297-1.424-1.844c-0.922-0.541-2.064-0.898-3.412-1.072
					c-1.019-0.16-1.695-0.15-2.031-0.059l-0.249-0.18l-0.102-0.131c3.545-0.498,7.188-0.6,10.783-0.807l-3.319-1.482
					c-7.331,0.287-14.602,1.641-21.323,3.828l3.71,0.605c1.981-0.711,4.161-0.924,6.235-1.395l1.33,0.193l-0.203,0.084
					c-1.785,0.715-2.869,1.291-3.293,1.725c-0.695,0.707-0.883,1.258-0.605,1.656c0.503,0.75,1.56,0.977,3.181,0.658l2.31-0.973
					c1.051-0.766,1.643-1.424,1.734-1.965l0.363-0.111l1.645,0.055c1.153,0.135,1.754,0.477,1.805,1.006
					c0.049,0.578-0.935,1.098-2.875,1.766l-2.919,0.895c-2.071,0.475-4.564,0.24-7.461,0.092l3.885,3.148
					c2.719-0.223,5.33-0.262,7.756,0.146c3.055,0.803,5.29,1.623,6.79,2.465l2.085,1.521l-1.226-2.832l-2.643-1.393
					c-1.479-0.787-3.295-1.402-5.436-1.861h-0.045C207.482,324.652,209.201,323.385,209.135,321.92z"/>
			</g>
			<g>
				<path fill="#FFFFFF" d="M221.561,318.438l-3.15-1.879l-2.025-0.139l-0.453-0.838c-0.283-0.566-0.803-1.17-1.592-1.824
					c-0.801-0.627-1.64-1.262-2.541-1.504c-1.621-0.494-3.024-0.789-4.164-0.891c-2.585-0.184-4.774-0.332-6.333-0.061l-1.576,0.41
					c-2.859,0.77-4.951,1.582-6.253,2.414c-0.614,0.396-0.842,0.861-0.711,1.389c0.152,0.594,0.933,0.967,2.3,1.127
					c1.021,0.121,2.276,0.098,3.732-0.088l3.824-0.652c2.051-0.084,3.092,0.043,3.117,0.332c0.008,0.143-0.678,0.549-2.008,1.215
					l4.448-0.305l0.213-0.992c-0.022-0.479-0.314-0.904-0.879-1.281l-2.197-0.779c-0.963-0.047-2.458-0.25-4.263,0.123l-4.287,0.744
					c-1.094,0.189-1.668,0.199-1.705,0.029c-0.047-0.215,0.738-0.596,2.385-1.109c1.254-0.352,2.31-0.604,3.132-0.75
					c1.597-0.387,3.185-0.332,4.579-0.266c1.608,0.117,2.738,0.229,3.409,0.334l2.648,0.967c1.125,0.598,1.731,1.176,1.891,1.549
					l0.215,0.5c-2.105-0.098-4.198,0.197-6.305,0.289l3.672,1.412l2.452-0.059l-0.121,10.078l2.679,1.824l0.713-11.684
					L221.561,318.438z"/>
			</g>
			<g>
				<path fill="#FFFFFF" d="M242.223,326.535c-1.607-0.324-3.01-0.379-4.137-0.33c-0.238,0-0.922,0.029-2.047,0.088
					c2.164,1.334,3.699,2.715,4.582,4.328L242.223,326.535z M249.164,331.445c0-0.475-0.258-1.037-0.803-1.678
					c-0.777-0.949-1.85-1.676-3.186-2.197l-3.514,8.465l-1.213-1.441c-0.133-0.818-0.229-1.326-0.307-1.51l-0.926-1.609
					c-1.322-1.867-3.438-3.174-6.191-4.277l-2.574-3.076c3.949-0.367,8.301-0.449,12.533,0.463l0.152-0.375
					c-3.936-1.543-8.098-2.666-12.166-3.93l-2.924-2.27c9.053,1.824,17.377,5.193,25.488,8.664l2.135,2.832l-9.596-4.111
					l-0.105,0.236c1.377,0.58,2.705,1.529,3.957,2.824c1.643,1.68,2.031,3.309,1.389,4.57c-0.266,0.557-0.803,0.9-1.625,1.021
					c-0.889,0.084-1.852-0.008-2.855-0.43l-1.848-1.268c-0.457-0.527-0.596-1.006-0.43-1.412c0.193-0.459,0.805-0.713,1.852-0.746
					l1.404,0.406L249.164,331.445z"/>
			</g>
			<g>
				<path fill="#FFFFFF" d="M266.992,334.811l-1.883-2.67l-13.375-6.248l2.211,2.805l4.979,2.336
					c-2.969,0.426-4.813,1.467-5.59,3.086c-0.6,1.27-0.629,2.637-0.096,4.113c0.672,1.752,2.094,3.143,4.279,4.168
					c1.014,0.457,1.977,0.736,2.906,0.779c0.936,0.035,1.539-0.197,1.809-0.719c0.305-0.588,0.076-1.248-0.693-1.971l-1.166-0.971
					l-1.369-0.396c-1.145-0.166-1.844,0.01-2.098,0.518c-0.182,0.371-0.072,0.83,0.336,1.363l0.209,0.309l0.146,0.141
					c-0.012,0.023-0.258-0.076-0.721-0.291c0.588,0.17,0.914,0.184,0.982,0.051l-0.031-0.131l-0.732-0.389
					c-1.605-1.547-2.131-2.9-1.551-4.072l1.041-1.471c1.031-1.219,2.773-1.746,5.225-1.568
					C263.318,333.664,265.031,334.109,266.992,334.811z"/>
			</g>
			<g>
				<path fill="#FFFFFF" d="M286.145,344.955l-2.066-3.004l-20.854-10.801l2.193,2.932l14.199,7.357l-0.822,1.484l-0.127-0.111
					l-0.369-0.789c-0.402-0.557-1.002-1.064-1.803-1.521l-1.57-0.436l-1.373,0.057l-0.123-0.199
					c-0.785-1.145-1.893-2.088-3.348-2.801c-1.41-0.691-2.705-0.934-3.904-0.709c-1.043,0.182-1.756,0.66-2.162,1.422
					c-0.48,0.922-0.328,1.92,0.447,3.004c0.783,1.078,1.98,2.035,3.631,2.883c1.553,0.799,2.813,0.99,3.797,0.59
					c0.313-0.17,0.426-0.605,0.34-1.324c-0.127-0.916-0.752-1.67-1.863-2.232l-1.971-0.521c-0.648-0.006-1.059,0.164-1.236,0.512
					l-0.141,0.418c-0.617-0.543-0.807-1.037-0.559-1.504c0.219-0.416,0.699-0.629,1.426-0.639c0.736-0.021,1.496,0.182,2.293,0.584
					c0.963,0.492,1.656,1.061,2.072,1.689c0.152,0.197,0.338,0.58,0.557,1.17c0.115,0.314-0.045,0.566-0.469,0.76l2.367,0.623
					c0.156-0.744,0.381-1.154,0.68-1.232l0.979,0.188l1.096,1.031c0.291,0.463,0.385,0.803,0.264,1.02l-3.07,5.52l1.932,2.865
					l5.77-10.328L286.145,344.955z"/>
			</g>
			<g>
				<path fill="#FFFFFF" d="M290.549,347.693c-1.502,0.137-2.432,0.498-2.771,1.1c-0.586,1.025-0.172,2.301,1.221,3.834l1.904,1.375
					c0.797,0.436,1.893,0.861,3.285,1.281l0.277,0.104l0.186,0.348l0.057,0.492c-0.189,0.316-0.84,0.311-1.955-0.023l-2.396-0.939
					l-1.85-1.383c-0.258-0.289-0.643-0.807-1.164-1.557c-0.486-0.682-0.77-1.332-0.852-1.965c-0.076-0.314-0.1-0.9-0.066-1.756
					c0.049-0.633,0.309-1.307,0.799-1.992l-1.018-1.09l-0.277-0.275c-0.27-0.15-0.473-0.086-0.625,0.168
					c-0.172,0.242-0.504,0.891-1.014,1.932l-0.371,2.188l0.779,3.191c1.037,2.008,2.686,3.619,4.957,4.877
					c1.494,0.816,2.934,1.238,4.324,1.275c1.393,0.029,2.318-0.352,2.766-1.135c0.438-0.756,0.279-1.807-0.457-3.16l-0.9-1.215
					l0.074,0.039l-0.498-0.482l-1.248-0.34c-1.516-0.363-2.4-0.6-2.639-0.686l-0.576-0.256c-0.588-0.32-0.805-0.621-0.637-0.902
					c0.117-0.213,0.627-0.42,1.504-0.613c0.887-0.199,1.551-0.232,1.996-0.102c0.494,0.996,0.775,1.576,0.865,1.693
					c0.318,0.402,0.926,0.996,1.84,1.771l3.861,2.625c-1.197,0.609-2.002,1.316-2.424,2.092c-0.27,0.479-0.471,1.223-0.617,2.248
					c-0.027,0.209-0.098,1.041-0.234,2.49c0,0.117,0.266,0.369,0.799,0.771l1.105,0.816c0.385,0.213,0.637,0.223,0.748,0.033
					c-0.297-1.6-0.264-2.732,0.125-3.395l0.873-1.129c0.326-0.506,0.988-0.879,2.002-1.141l2.902-0.359
					c-0.873-1.4-1.627-2.596-2.293-3.578c-0.943-0.32-1.596-0.547-1.961-0.697c-0.949-0.314-1.672-0.615-2.189-0.895l-1.941-1.412
					c-0.787-0.652-1.133-1.055-1.047-1.199l0.162-0.035l1.078,0.209l10.957,6.002l-1.893-2.93l-23.438-12.744l1.953,2.938
					l6.375,3.426L290.549,347.693z"/>
			</g>
		</g>
	</g>
	<g>
		<path fill="#00AEEF" d="M233.65,158.156l-1.869-1.435c11.912-15.507,29.547-6.699,29.721-6.607l-1.076,2.097
			C259.773,151.883,244.354,144.234,233.65,158.156z"/>
	</g>
	<g>
		<path fill="#00AEEF" d="M233.65,179.126l-1.869-1.435c11.912-15.504,29.543-6.702,29.721-6.61l-1.076,2.097
			C259.775,172.851,244.354,165.202,233.65,179.126z"/>
	</g>
	<g>
		<path fill="#00AEEF" d="M233.65,168.641l-1.869-1.435c11.914-15.507,29.547-6.702,29.721-6.61l-1.076,2.097
			C259.773,162.365,244.354,154.713,233.65,168.641z"/>
	</g>
	<g>
		<path fill="#00AEEF" d="M233.65,189.622l-1.869-1.435c11.914-15.507,29.547-6.702,29.721-6.61l-1.076,2.097
			C259.773,183.342,244.354,175.694,233.65,189.622z"/>
	</g>
	<g>
		<path fill="#00AEEF" d="M233.65,200.108l-1.869-1.436c11.912-15.51,29.547-6.701,29.721-6.606l-1.076,2.097
			C259.773,193.832,244.354,186.186,233.65,200.108z"/>
	</g>
	<g>
		<path fill="#00AEEF" d="M233.65,210.599l-1.869-1.434c11.916-15.51,29.543-6.705,29.721-6.613l-1.076,2.097
			C259.777,204.32,244.355,196.671,233.65,210.599z"/>
	</g>
	<g>
		<path fill="#00AEEF" d="M233.65,221.078l-1.869-1.435c11.912-15.507,29.543-6.702,29.721-6.61l-1.076,2.096
			C259.775,214.799,244.354,207.15,233.65,221.078z"/>
	</g>
	<g>
		<path fill="#00AEEF" d="M177.453,158.156c-10.728-13.961-26.613-6.023-26.773-5.945l-1.078-2.097
			c0.18-0.092,17.81-8.899,29.722,6.607L177.453,158.156z"/>
	</g>
	<g>
		<path fill="#00AEEF" d="M177.453,179.126c-10.724-13.957-26.611-6.027-26.773-5.948l-1.078-2.097
			c0.178-0.092,17.812-8.896,29.722,6.61L177.453,179.126z"/>
	</g>
	<g>
		<path fill="#00AEEF" d="M177.453,168.641c-10.698-13.925-26.123-6.276-26.775-5.948l-1.076-2.097
			c0.178-0.095,17.808-8.899,29.722,6.61L177.453,168.641z"/>
	</g>
	<g>
		<path fill="#00AEEF" d="M177.453,189.622c-10.698-13.928-26.123-6.275-26.775-5.948l-1.076-2.097
			c0.178-0.092,17.808-8.899,29.722,6.61L177.453,189.622z"/>
	</g>
	<g>
		<path fill="#00AEEF" d="M177.453,200.108c-10.728-13.961-26.613-6.024-26.773-5.945l-1.078-2.097
			c0.18-0.089,17.81-8.9,29.722,6.606L177.453,200.108z"/>
	</g>
	<g>
		<path fill="#00AEEF" d="M177.453,210.599c-10.7-13.92-26.122-6.279-26.775-5.951l-1.076-2.097
			c0.178-0.092,17.812-8.891,29.722,6.613L177.453,210.599z"/>
	</g>
	<g>
		<path fill="#00AEEF" d="M177.453,221.078c-10.724-13.958-26.611-6.027-26.773-5.949l-1.078-2.096
			c0.178-0.092,17.812-8.897,29.722,6.61L177.453,221.078z"/>
	</g>
	<g>
		<path fill="#F58220" d="M198.136,103.629c0,0,17.674,30.555,20.715,35.541c6.783,11.098,18.174,31.94-0.605,67.341
			c-11.582,21.826-7.922,29.723-7.922,29.723l-7.553,1.727c0,0-3.749-7.089-13.168-19.183
			c-17.474-22.448-22.463-39.563-4.462-70.256C202.197,119.431,198.136,103.629,198.136,103.629z"/>
	</g>
	<g>
		<path fill="#FFFFFF" d="M201.538,123.041c0,0,17.658,25.481,6.84,62.274c-4.09,13.905-5.523,41.459-5.523,41.459
			s-7.047-8.494-10.124-16.83c-9.9-26.815-0.109-36.039,4.364-56.741C201.013,135.118,201.538,123.041,201.538,123.041z"/>
	</g>
</g>
</svg>
